<mxfile host="65bd71144e">
    <diagram name="Página-1" id="VECuZfFfxexBOpo8IrGG">
        <mxGraphModel dx="1180" dy="341" grid="1" gridSize="10" guides="1" tooltips="1" connect="1" arrows="1" fold="1" page="1" pageScale="1" pageWidth="827" pageHeight="1169" background="#FFEAD6" math="0" shadow="0">
            <root>
                <mxCell id="0"/>
                <mxCell id="1" parent="0"/>
                <mxCell id="CfMO7Ov9Iw6Pn5QhPl2v-24" style="edgeStyle=orthogonalEdgeStyle;rounded=0;orthogonalLoop=1;jettySize=auto;html=1;entryX=0;entryY=0.5;entryDx=0;entryDy=0;startArrow=none;startFill=0;endArrow=none;fillColor=#f5f5f5;strokeColor=#666666;exitX=1.001;exitY=0.372;exitDx=0;exitDy=0;exitPerimeter=0;" parent="1" source="YeF2VasII4Bk6o8nPMnh-45" edge="1">
                    <mxGeometry relative="1" as="geometry">
                        <mxPoint x="279.04" y="731.52" as="targetPoint"/>
                        <mxPoint x="70" y="732" as="sourcePoint"/>
                        <Array as="points">
                            <mxPoint x="90" y="732"/>
                            <mxPoint x="90" y="730"/>
                            <mxPoint x="279" y="730"/>
                        </Array>
                    </mxGeometry>
                </mxCell>
                <mxCell id="YeF2VasII4Bk6o8nPMnh-25" value="&amp;lt;- enseña en" style="text;html=1;align=center;verticalAlign=middle;resizable=0;points=[];autosize=1;fillColor=none;fontColor=#333333;strokeColor=none;" parent="1" vertex="1">
                    <mxGeometry x="90" y="700" width="90" height="30" as="geometry"/>
                </mxCell>
                <mxCell id="YeF2VasII4Bk6o8nPMnh-26" value="asignado a" style="text;html=1;align=center;verticalAlign=middle;resizable=0;points=[];autosize=1;fillColor=none;fontColor=#333333;strokeColor=none;" parent="1" vertex="1">
                    <mxGeometry x="335" y="520" width="80" height="30" as="geometry"/>
                </mxCell>
                <mxCell id="YeF2VasII4Bk6o8nPMnh-32" value="Departamento" style="swimlane;fontStyle=1;align=center;verticalAlign=top;childLayout=stackLayout;horizontal=1;startSize=26;horizontalStack=0;resizeParent=1;resizeParentMax=0;resizeLast=0;collapsible=1;marginBottom=0;whiteSpace=wrap;html=1;fillColor=#f5f5f5;fontColor=#333333;strokeColor=#666666;" parent="1" vertex="1">
                    <mxGeometry x="230" y="250" width="180" height="200" as="geometry"/>
                </mxCell>
                <mxCell id="YeF2VasII4Bk6o8nPMnh-33" value="&lt;font size=&quot;1&quot;&gt;+ nombre&lt;/font&gt;&lt;div&gt;&lt;font size=&quot;1&quot;&gt;+ director&lt;/font&gt;&lt;/div&gt;&lt;div&gt;&lt;font size=&quot;1&quot;&gt;+ profesores&lt;/font&gt;&lt;/div&gt;&lt;div&gt;&lt;font size=&quot;1&quot;&gt;+ cursos&lt;/font&gt;&lt;/div&gt;" style="text;align=left;verticalAlign=top;spacingLeft=4;spacingRight=4;overflow=hidden;rotatable=0;points=[[0,0.5],[1,0.5]];portConstraint=eastwest;whiteSpace=wrap;html=1;fillColor=#f5f5f5;fontColor=#333333;strokeColor=#666666;" parent="YeF2VasII4Bk6o8nPMnh-32" vertex="1">
                    <mxGeometry y="26" width="180" height="84" as="geometry"/>
                </mxCell>
                <mxCell id="YeF2VasII4Bk6o8nPMnh-34" value="" style="line;strokeWidth=1;align=left;verticalAlign=middle;spacingTop=-1;spacingLeft=3;spacingRight=3;rotatable=0;labelPosition=right;points=[];portConstraint=eastwest;fillColor=#f5f5f5;fontColor=#333333;strokeColor=#666666;" parent="YeF2VasII4Bk6o8nPMnh-32" vertex="1">
                    <mxGeometry y="110" width="180" height="2" as="geometry"/>
                </mxCell>
                <mxCell id="YeF2VasII4Bk6o8nPMnh-35" value="&lt;div&gt;&lt;font style=&quot;font-size: 11px;&quot;&gt;+ enviar_nombre&lt;/font&gt;&lt;/div&gt;&lt;div&gt;&lt;font style=&quot;font-size: 11px;&quot;&gt;+ enviar_cursos&lt;/font&gt;&lt;/div&gt;&lt;div&gt;&lt;font style=&quot;font-size: 11px;&quot;&gt;+ listar_cursos&lt;/font&gt;&lt;/div&gt;&lt;div&gt;&lt;font style=&quot;font-size: 11px;&quot;&gt;+ cargar_cursos&lt;/font&gt;&lt;/div&gt;&lt;div&gt;&lt;font style=&quot;font-size: 11px;&quot;&gt;+ agregar_cursos&lt;/font&gt;&lt;/div&gt;" style="text;align=left;verticalAlign=top;spacingLeft=4;spacingRight=4;overflow=hidden;rotatable=0;points=[[0,0.5],[1,0.5]];portConstraint=eastwest;whiteSpace=wrap;html=1;fillColor=#f5f5f5;fontColor=#333333;strokeColor=#666666;" parent="YeF2VasII4Bk6o8nPMnh-32" vertex="1">
                    <mxGeometry y="112" width="180" height="88" as="geometry"/>
                </mxCell>
                <mxCell id="YeF2VasII4Bk6o8nPMnh-44" value="Curso&lt;div&gt;&lt;br&gt;&lt;/div&gt;" style="swimlane;fontStyle=1;align=center;verticalAlign=top;childLayout=stackLayout;horizontal=1;startSize=26;horizontalStack=0;resizeParent=1;resizeParentMax=0;resizeLast=0;collapsible=1;marginBottom=0;whiteSpace=wrap;html=1;fillColor=#f5f5f5;fontColor=#333333;strokeColor=#666666;" parent="1" vertex="1">
                    <mxGeometry x="-80" y="630" width="160" height="180" as="geometry">
                        <mxRectangle x="190" y="440" width="110" height="30" as="alternateBounds"/>
                    </mxGeometry>
                </mxCell>
                <mxCell id="5" value="" style="endArrow=none;html=1;" parent="YeF2VasII4Bk6o8nPMnh-44" target="YeF2VasII4Bk6o8nPMnh-45" edge="1">
                    <mxGeometry width="50" height="50" relative="1" as="geometry">
                        <mxPoint x="30" y="140" as="sourcePoint"/>
                        <mxPoint x="80" y="90" as="targetPoint"/>
                    </mxGeometry>
                </mxCell>
                <mxCell id="YeF2VasII4Bk6o8nPMnh-45" value="&lt;div&gt;&lt;span style=&quot;background-color: transparent;&quot;&gt;+ titular&lt;/span&gt;&lt;/div&gt;&lt;div&gt;+ nombre&lt;/div&gt;&lt;div&gt;+ estudiantes&lt;/div&gt;&lt;div&gt;&lt;br&gt;&lt;/div&gt;&lt;div&gt;_______________________&lt;/div&gt;&lt;div&gt;&lt;br&gt;&lt;/div&gt;&lt;div&gt;&lt;span style=&quot;background-color: transparent;&quot;&gt;+agregar_estu&lt;/span&gt;&lt;span style=&quot;background-color: transparent;&quot;&gt;diante_curso&lt;/span&gt;&lt;/div&gt;&lt;div&gt;+ get_datos&lt;/div&gt;" style="text;align=left;verticalAlign=top;spacingLeft=4;spacingRight=4;overflow=hidden;rotatable=0;points=[[0,0.5],[1,0.5]];portConstraint=eastwest;whiteSpace=wrap;html=1;fillColor=#f5f5f5;fontColor=#333333;strokeColor=#666666;strokeWidth=1;rounded=0;glass=0;shadow=0;" parent="YeF2VasII4Bk6o8nPMnh-44" vertex="1">
                    <mxGeometry y="26" width="160" height="154" as="geometry"/>
                </mxCell>
                <mxCell id="YeF2VasII4Bk6o8nPMnh-48" style="edgeStyle=orthogonalEdgeStyle;rounded=0;orthogonalLoop=1;jettySize=auto;html=1;exitX=1;exitY=0.5;exitDx=0;exitDy=0;entryX=0;entryY=0.5;entryDx=0;entryDy=0;endArrow=none;startFill=0;fillColor=#f5f5f5;strokeColor=#666666;" parent="1" target="YeF2VasII4Bk6o8nPMnh-45" edge="1">
                    <mxGeometry relative="1" as="geometry">
                        <Array as="points">
                            <mxPoint x="-80" y="683"/>
                        </Array>
                        <mxPoint x="-180" y="708" as="sourcePoint"/>
                    </mxGeometry>
                </mxCell>
                <mxCell id="CfMO7Ov9Iw6Pn5QhPl2v-46" value="" style="endArrow=diamondThin;endFill=1;endSize=20;html=1;rounded=0;entryX=1.014;entryY=0.269;entryDx=0;entryDy=0;entryPerimeter=0;startArrow=none;startFill=0;fillColor=#f5f5f5;strokeColor=#666666;" parent="1" edge="1">
                    <mxGeometry width="160" relative="1" as="geometry">
                        <mxPoint x="229" y="293" as="sourcePoint"/>
                        <mxPoint x="-178.03999999999996" y="292.9939999999999" as="targetPoint"/>
                    </mxGeometry>
                </mxCell>
                <mxCell id="YeF2VasII4Bk6o8nPMnh-53" value="Facultad&lt;div&gt;&lt;br&gt;&lt;/div&gt;" style="swimlane;fontStyle=1;align=center;verticalAlign=top;childLayout=stackLayout;horizontal=1;startSize=26;horizontalStack=0;resizeParent=1;resizeParentMax=0;resizeLast=0;collapsible=1;marginBottom=0;whiteSpace=wrap;html=1;fillColor=#f5f5f5;fontColor=#333333;strokeColor=#666666;" parent="1" vertex="1">
                    <mxGeometry x="-340" y="250" width="160" height="262" as="geometry"/>
                </mxCell>
                <mxCell id="YeF2VasII4Bk6o8nPMnh-54" value="&lt;span style=&quot;font-size: 11px;&quot;&gt;- estudiante&lt;/span&gt;&lt;div&gt;&lt;span style=&quot;font-size: 11px;&quot;&gt;- profesores&lt;/span&gt;&lt;/div&gt;&lt;div&gt;&lt;span style=&quot;font-size: 11px;&quot;&gt;- departamentos&lt;/span&gt;&lt;/div&gt;&lt;div&gt;&lt;span style=&quot;font-size: 11px;&quot;&gt;- servicio_alumnado&lt;/span&gt;&lt;/div&gt;" style="text;align=left;verticalAlign=top;spacingLeft=4;spacingRight=4;overflow=hidden;rotatable=0;points=[[0,0.5],[1,0.5]];portConstraint=eastwest;whiteSpace=wrap;html=1;fillColor=#f5f5f5;fontColor=#333333;strokeColor=#666666;" parent="YeF2VasII4Bk6o8nPMnh-53" vertex="1">
                    <mxGeometry y="26" width="160" height="74" as="geometry"/>
                </mxCell>
                <mxCell id="YeF2VasII4Bk6o8nPMnh-55" value="" style="line;strokeWidth=1;align=left;verticalAlign=middle;spacingTop=-1;spacingLeft=3;spacingRight=3;rotatable=0;labelPosition=right;points=[];portConstraint=eastwest;fillColor=#f5f5f5;fontColor=#333333;strokeColor=#666666;" parent="YeF2VasII4Bk6o8nPMnh-53" vertex="1">
                    <mxGeometry y="100" width="160" as="geometry"/>
                </mxCell>
                <mxCell id="YeF2VasII4Bk6o8nPMnh-56" value="&lt;div&gt;&lt;font face=&quot;Tahoma&quot; style=&quot;font-size: 9px;&quot;&gt;+&amp;nbsp;&lt;span style=&quot;color: rgb(220, 220, 170); white-space: pre;&quot;&gt;&lt;font style=&quot;&quot;&gt;actualizar_datos&lt;/font&gt;&lt;/span&gt;&lt;/font&gt;&lt;/div&gt;&lt;div&gt;&lt;span style=&quot;color: rgb(220, 220, 170); white-space: pre;&quot;&gt;&lt;font face=&quot;Tahoma&quot; style=&quot;font-size: 10px;&quot;&gt;+ anotar_estudiante_curso&lt;/font&gt;&lt;/span&gt;&lt;/div&gt;&lt;div&gt;&lt;span style=&quot;color: rgb(220, 220, 170); white-space: pre;&quot;&gt;&lt;font face=&quot;Tahoma&quot; style=&quot;font-size: 10px;&quot;&gt;+ incribir_estudiante&lt;/font&gt;&lt;/span&gt;&lt;/div&gt;&lt;div&gt;&lt;span style=&quot;color: rgb(220, 220, 170); white-space: pre;&quot;&gt;&lt;font face=&quot;Tahoma&quot; style=&quot;font-size: 10px;&quot;&gt;+ listar_profesores&lt;/font&gt;&lt;/span&gt;&lt;/div&gt;&lt;div&gt;&lt;span style=&quot;color: rgb(220, 220, 170); white-space: pre;&quot;&gt;&lt;font face=&quot;Tahoma&quot; style=&quot;font-size: 10px;&quot;&gt;+ listar_estudiantes&lt;/font&gt;&lt;/span&gt;&lt;/div&gt;&lt;div&gt;&lt;span style=&quot;color: rgb(220, 220, 170); white-space: pre;&quot;&gt;&lt;font face=&quot;Tahoma&quot; style=&quot;font-size: 10px;&quot;&gt;+ obtener_estudiantes&lt;/font&gt;&lt;/span&gt;&lt;/div&gt;&lt;div&gt;&lt;span style=&quot;color: rgb(220, 220, 170); white-space: pre;&quot;&gt;&lt;font face=&quot;Tahoma&quot; style=&quot;font-size: 10px;&quot;&gt;+ contratar_profesor&lt;/font&gt;&lt;/span&gt;&lt;/div&gt;&lt;div&gt;&lt;span style=&quot;color: rgb(220, 220, 170); white-space: pre;&quot;&gt;&lt;font face=&quot;Tahoma&quot; style=&quot;font-size: 10px;&quot;&gt;+ crear_departamento&lt;/font&gt;&lt;/span&gt;&lt;/div&gt;&lt;div&gt;&lt;span style=&quot;color: rgb(220, 220, 170); white-space: pre;&quot;&gt;&lt;font face=&quot;Tahoma&quot; style=&quot;font-size: 10px;&quot;&gt;+ listar_deptos_existentes&lt;/font&gt;&lt;/span&gt;&lt;/div&gt;&lt;div&gt;&lt;span style=&quot;color: rgb(220, 220, 170); white-space: pre;&quot;&gt;&lt;font face=&quot;Tahoma&quot; style=&quot;font-size: 10px;&quot;&gt;+ enviar_lista_departamentos&lt;/font&gt;&lt;/span&gt;&lt;/div&gt;&lt;div&gt;&lt;span style=&quot;color: rgb(220, 220, 170); white-space: pre;&quot;&gt;&lt;font face=&quot;Tahoma&quot; style=&quot;font-size: 10px;&quot;&gt;&lt;br&gt;&lt;/font&gt;&lt;/span&gt;&lt;/div&gt;" style="text;align=left;verticalAlign=top;spacingLeft=4;spacingRight=4;overflow=hidden;rotatable=0;points=[[0,0.5],[1,0.5]];portConstraint=eastwest;whiteSpace=wrap;html=1;fillColor=#f5f5f5;fontColor=#333333;strokeColor=#666666;" parent="YeF2VasII4Bk6o8nPMnh-53" vertex="1">
                    <mxGeometry y="100" width="160" height="162" as="geometry"/>
                </mxCell>
                <mxCell id="CfMO7Ov9Iw6Pn5QhPl2v-47" value="" style="endArrow=diamondThin;endFill=1;endSize=20;html=1;rounded=0;exitX=1;exitY=0;exitDx=0;exitDy=0;entryX=0;entryY=1.012;entryDx=0;entryDy=0;entryPerimeter=0;fillColor=#f5f5f5;strokeColor=#666666;" parent="1" source="YeF2VasII4Bk6o8nPMnh-44" target="YeF2VasII4Bk6o8nPMnh-35" edge="1">
                    <mxGeometry width="160" relative="1" as="geometry">
                        <mxPoint x="64" y="434.5" as="sourcePoint"/>
                        <mxPoint x="224" y="434.5" as="targetPoint"/>
                        <Array as="points"/>
                    </mxGeometry>
                </mxCell>
                <mxCell id="CfMO7Ov9Iw6Pn5QhPl2v-48" value="" style="endArrow=diamondThin;endFill=0;endSize=20;html=1;rounded=0;entryX=0.988;entryY=1;entryDx=0;entryDy=0;entryPerimeter=0;fillColor=#f5f5f5;strokeColor=#666666;exitX=0;exitY=0;exitDx=0;exitDy=0;" parent="1" source="Xxl3pkXNStO3PvVo3a0l-6" target="YeF2VasII4Bk6o8nPMnh-56" edge="1">
                    <mxGeometry width="160" relative="1" as="geometry">
                        <mxPoint x="230" y="420" as="sourcePoint"/>
                        <mxPoint x="-170" y="341" as="targetPoint"/>
                    </mxGeometry>
                </mxCell>
                <mxCell id="RUsnCZbkuSlCIbisjI5Q-4" style="edgeStyle=orthogonalEdgeStyle;rounded=0;orthogonalLoop=1;jettySize=auto;html=1;entryX=0;entryY=0.5;entryDx=0;entryDy=0;endArrow=diamondThin;endFill=1;endSize=20;fillColor=#f5f5f5;strokeColor=#666666;" parent="1" source="CfMO7Ov9Iw6Pn5QhPl2v-49" target="YeF2VasII4Bk6o8nPMnh-54" edge="1">
                    <mxGeometry relative="1" as="geometry"/>
                </mxCell>
                <mxCell id="CfMO7Ov9Iw6Pn5QhPl2v-49" value="&lt;p style=&quot;margin:0px;margin-top:4px;text-align:center;&quot;&gt;&lt;b&gt;Alumnado&lt;/b&gt;&lt;/p&gt;&lt;hr size=&quot;1&quot; style=&quot;border-style:solid;&quot;&gt;&lt;p style=&quot;margin:0px;margin-left:4px;&quot;&gt;&lt;br&gt;&lt;/p&gt;&lt;p style=&quot;margin:0px;margin-left:4px;&quot;&gt;&lt;br&gt;&lt;/p&gt;&lt;hr size=&quot;1&quot; style=&quot;border-style:solid;&quot;&gt;&lt;p style=&quot;margin:0px;margin-left:4px;&quot;&gt;&lt;span style=&quot;background-color: transparent;&quot;&gt;+ estudiante_crear&lt;/span&gt;&lt;/p&gt;&lt;p style=&quot;margin:0px;margin-left:4px;&quot;&gt;+ enviar_solicitud_anotar_a_curso&lt;/p&gt;&lt;p style=&quot;margin:0px;margin-left:4px;&quot;&gt;&lt;br&gt;&lt;/p&gt;&lt;p style=&quot;margin:0px;margin-left:4px;&quot;&gt;&lt;br&gt;&lt;/p&gt;" style="verticalAlign=top;align=left;overflow=fill;html=1;whiteSpace=wrap;fillColor=#f5f5f5;fontColor=#333333;strokeColor=#666666;" parent="1" vertex="1">
                    <mxGeometry x="-590" y="506" width="190" height="164" as="geometry"/>
                </mxCell>
                <mxCell id="RUsnCZbkuSlCIbisjI5Q-1" style="edgeStyle=orthogonalEdgeStyle;rounded=0;orthogonalLoop=1;jettySize=auto;html=1;entryX=0.5;entryY=1;entryDx=0;entryDy=0;entryPerimeter=0;endArrow=diamondThin;endFill=0;endSize=20;fillColor=#f5f5f5;strokeColor=#666666;exitX=0.5;exitY=0;exitDx=0;exitDy=0;" parent="1" source="Xxl3pkXNStO3PvVo3a0l-14" target="YeF2VasII4Bk6o8nPMnh-56" edge="1">
                    <mxGeometry relative="1" as="geometry">
                        <mxPoint x="-260" y="530" as="sourcePoint"/>
                    </mxGeometry>
                </mxCell>
                <mxCell id="FNpx_MnlN7FKbDXMtOuo-2" value="" style="endArrow=none;html=1;rounded=0;exitX=0.5;exitY=0;exitDx=0;exitDy=0;fillColor=#f5f5f5;strokeColor=#666666;" parent="1" edge="1">
                    <mxGeometry width="50" height="50" relative="1" as="geometry">
                        <mxPoint x="335" y="630" as="sourcePoint"/>
                        <mxPoint x="335" y="450" as="targetPoint"/>
                        <Array as="points"/>
                    </mxGeometry>
                </mxCell>
                <mxCell id="Xxl3pkXNStO3PvVo3a0l-1" value="&lt;p style=&quot;margin:0px;margin-top:4px;text-align:center;&quot;&gt;&lt;b&gt;Persona&lt;/b&gt;&lt;/p&gt;&lt;hr size=&quot;1&quot; style=&quot;border-style:solid;&quot;&gt;&lt;p style=&quot;margin:0px;margin-left:4px;&quot;&gt;+&amp;nbsp;&lt;span style=&quot;background-color: transparent; color: light-dark(rgb(0, 0, 0), rgb(255, 255, 255));&quot;&gt;Nombre&lt;/span&gt;&lt;/p&gt;&lt;div&gt;&amp;nbsp;+ Apellido&lt;/div&gt;&lt;div&gt;&amp;nbsp;+ DNI&lt;/div&gt;&lt;div&gt;&amp;nbsp;+ Edad&lt;/div&gt;&lt;hr size=&quot;1&quot; style=&quot;border-style:solid;&quot;&gt;&lt;p style=&quot;margin:0px;margin-left:4px;&quot;&gt;&lt;br&gt;&lt;/p&gt;" style="verticalAlign=top;align=left;overflow=fill;html=1;whiteSpace=wrap;fillColor=#f5f5f5;fontColor=#333333;strokeColor=#666666;" parent="1" vertex="1">
                    <mxGeometry x="-560" y="850" width="160" height="130" as="geometry"/>
                </mxCell>
                <mxCell id="Xxl3pkXNStO3PvVo3a0l-3" value="" style="endArrow=none;html=1;rounded=0;startArrow=classicThin;startFill=0;targetPerimeterSpacing=0;exitX=1;exitY=0.5;exitDx=0;exitDy=0;fillColor=#f5f5f5;strokeColor=#666666;entryX=0;entryY=1;entryDx=0;entryDy=0;" parent="1" source="Xxl3pkXNStO3PvVo3a0l-1" target="Xxl3pkXNStO3PvVo3a0l-6" edge="1">
                    <mxGeometry width="50" height="50" relative="1" as="geometry">
                        <mxPoint x="80" y="960" as="sourcePoint"/>
                        <mxPoint x="230" y="910" as="targetPoint"/>
                        <Array as="points">
                            <mxPoint x="230" y="920"/>
                        </Array>
                    </mxGeometry>
                </mxCell>
                <mxCell id="Xxl3pkXNStO3PvVo3a0l-4" value="" style="endArrow=none;html=1;rounded=0;startArrow=classicThin;startFill=0;fillColor=#f5f5f5;strokeColor=#666666;entryX=0.5;entryY=1;entryDx=0;entryDy=0;" parent="1" target="Xxl3pkXNStO3PvVo3a0l-14" edge="1">
                    <mxGeometry width="50" height="50" relative="1" as="geometry">
                        <mxPoint x="-399" y="880" as="sourcePoint"/>
                        <mxPoint x="-260" y="880" as="targetPoint"/>
                        <Array as="points">
                            <mxPoint x="-260" y="880"/>
                        </Array>
                    </mxGeometry>
                </mxCell>
                <mxCell id="Xxl3pkXNStO3PvVo3a0l-6" value="&lt;p style=&quot;margin:0px;margin-top:4px;text-align:center;&quot;&gt;&lt;b&gt;Profesor&lt;/b&gt;&lt;/p&gt;&lt;hr size=&quot;1&quot; style=&quot;border-style:solid;&quot;&gt;&lt;p style=&quot;margin:0px;margin-left:4px;&quot;&gt;&lt;span style=&quot;background-color: transparent;&quot;&gt;+ Nombre&lt;/span&gt;&lt;/p&gt;&lt;p style=&quot;margin: 0px 0px 0px 4px;&quot;&gt;+&amp;nbsp;&lt;span style=&quot;text-align: center; background-color: transparent; color: light-dark(rgb(0, 0, 0), rgb(255, 255, 255));&quot;&gt;Apellido&lt;/span&gt;&lt;/p&gt;&lt;p style=&quot;margin: 0px 0px 0px 4px;&quot;&gt;&lt;span style=&quot;text-align: center; background-color: transparent; color: light-dark(rgb(0, 0, 0), rgb(255, 255, 255));&quot;&gt;+ DNI&lt;/span&gt;&lt;/p&gt;&lt;hr&gt;&lt;p style=&quot;margin:0px;margin-left:4px;&quot;&gt;+ crear_profesor&lt;/p&gt;" style="verticalAlign=top;align=left;overflow=fill;html=1;whiteSpace=wrap;fillColor=#f5f5f5;fontColor=#333333;strokeColor=#666666;" parent="1" vertex="1">
                    <mxGeometry x="230" y="630" width="160" height="140" as="geometry"/>
                </mxCell>
                <mxCell id="G8fqVGyP99TmZrWw0s2F-1" style="edgeStyle=orthogonalEdgeStyle;rounded=0;orthogonalLoop=1;jettySize=auto;html=1;entryX=1.003;entryY=0.912;entryDx=0;entryDy=0;entryPerimeter=0;endArrow=none;startFill=0;startArrow=none;endFill=1;fillColor=#f5f5f5;strokeColor=#666666;" parent="1" source="Xxl3pkXNStO3PvVo3a0l-14" edge="1">
                    <mxGeometry relative="1" as="geometry">
                        <mxPoint x="-399.52" y="666.9280000000001" as="targetPoint"/>
                    </mxGeometry>
                </mxCell>
                <mxCell id="Xxl3pkXNStO3PvVo3a0l-14" value="&lt;p style=&quot;margin:0px;margin-top:4px;text-align:center;&quot;&gt;&lt;b&gt;Estudiante&lt;/b&gt;&lt;/p&gt;&lt;hr size=&quot;1&quot; style=&quot;border-style:solid;&quot;&gt;&lt;p style=&quot;margin:0px;margin-left:4px;&quot;&gt;+ materiasCursando&lt;/p&gt;&lt;p style=&quot;margin: 0px 0px 0px 4px;&quot;&gt;+ Nombre&lt;/p&gt;&lt;p style=&quot;margin: 0px 0px 0px 4px;&quot;&gt;+&amp;nbsp;&lt;span style=&quot;text-align: center; background-color: transparent; color: light-dark(rgb(0, 0, 0), rgb(255, 255, 255));&quot;&gt;Apellido&lt;/span&gt;&lt;/p&gt;&lt;p style=&quot;margin: 0px 0px 0px 4px;&quot;&gt;&lt;span style=&quot;text-align: center; background-color: transparent; color: light-dark(rgb(0, 0, 0), rgb(255, 255, 255));&quot;&gt;+ DNI&lt;/span&gt;&lt;/p&gt;&lt;hr size=&quot;1&quot; style=&quot;border-style:solid;&quot;&gt;&lt;p style=&quot;margin:0px;margin-left:4px;&quot;&gt;&lt;span style=&quot;background-color: transparent; color: light-dark(rgb(0, 0, 0), rgb(255, 255, 255));&quot;&gt;&amp;nbsp;+ get_datos&lt;/span&gt;&lt;/p&gt;&lt;p style=&quot;margin:0px;margin-left:4px;&quot;&gt;&lt;span style=&quot;background-color: transparent; color: light-dark(rgb(0, 0, 0), rgb(255, 255, 255));&quot;&gt;&amp;nbsp;+ cargar_cursos&lt;/span&gt;&lt;/p&gt;" style="verticalAlign=top;align=left;overflow=fill;html=1;whiteSpace=wrap;fillColor=#f5f5f5;fontColor=#333333;strokeColor=#666666;" parent="1" vertex="1">
                    <mxGeometry x="-340" y="630" width="160" height="190" as="geometry"/>
                </mxCell>
                <mxCell id="SxYlm2iQKeeMsEHb3vlX-1" value="1..*" style="text;html=1;align=center;verticalAlign=middle;resizable=0;points=[];autosize=1;strokeColor=none;fillColor=none;fontColor=#333333;" parent="1" vertex="1">
                    <mxGeometry x="190" y="260" width="40" height="30" as="geometry"/>
                </mxCell>
                <mxCell id="SxYlm2iQKeeMsEHb3vlX-2" value="1" style="text;html=1;align=center;verticalAlign=middle;resizable=0;points=[];autosize=1;strokeColor=none;fillColor=none;fontColor=#333333;" parent="1" vertex="1">
                    <mxGeometry x="-160" y="270" width="30" height="30" as="geometry"/>
                </mxCell>
                <mxCell id="SxYlm2iQKeeMsEHb3vlX-3" value="1" style="text;html=1;align=center;verticalAlign=middle;resizable=0;points=[];autosize=1;strokeColor=none;fillColor=none;fontColor=#333333;" parent="1" vertex="1">
                    <mxGeometry x="80" y="700" width="30" height="30" as="geometry"/>
                </mxCell>
                <mxCell id="SxYlm2iQKeeMsEHb3vlX-4" value="1..*" style="text;html=1;align=center;verticalAlign=middle;resizable=0;points=[];autosize=1;" parent="1" vertex="1">
                    <mxGeometry x="190" y="700" width="40" height="30" as="geometry"/>
                </mxCell>
                <mxCell id="SxYlm2iQKeeMsEHb3vlX-5" value="*" style="text;html=1;align=center;verticalAlign=middle;resizable=0;points=[];autosize=1;strokeColor=none;fillColor=none;fontColor=#333333;" parent="1" vertex="1">
                    <mxGeometry x="-180" y="654" width="30" height="30" as="geometry"/>
                </mxCell>
                <mxCell id="SxYlm2iQKeeMsEHb3vlX-6" value="*" style="text;html=1;align=center;verticalAlign=middle;resizable=0;points=[];autosize=1;strokeColor=none;fillColor=none;fontColor=#333333;" parent="1" vertex="1">
                    <mxGeometry x="-110" y="654" width="30" height="30" as="geometry"/>
                </mxCell>
                <mxCell id="SxYlm2iQKeeMsEHb3vlX-7" value="1" style="text;html=1;align=center;verticalAlign=middle;resizable=0;points=[];autosize=1;strokeColor=none;fillColor=none;fontColor=#333333;" parent="1" vertex="1">
                    <mxGeometry x="-400" y="637" width="30" height="30" as="geometry"/>
                </mxCell>
                <mxCell id="SxYlm2iQKeeMsEHb3vlX-8" value="1..*" style="text;html=1;align=center;verticalAlign=middle;resizable=0;points=[];autosize=1;strokeColor=none;fillColor=none;fontColor=#333333;" parent="1" vertex="1">
                    <mxGeometry x="-370" y="730" width="40" height="30" as="geometry"/>
                </mxCell>
                <mxCell id="SxYlm2iQKeeMsEHb3vlX-9" value="1" style="text;html=1;align=center;verticalAlign=middle;resizable=0;points=[];autosize=1;strokeColor=none;fillColor=none;fontColor=#333333;" parent="1" vertex="1">
                    <mxGeometry x="-380" y="290" width="30" height="30" as="geometry"/>
                </mxCell>
                <mxCell id="SxYlm2iQKeeMsEHb3vlX-10" value="1" style="text;html=1;align=center;verticalAlign=middle;resizable=0;points=[];autosize=1;strokeColor=none;fillColor=none;fontColor=#333333;" parent="1" vertex="1">
                    <mxGeometry x="-495" y="476" width="30" height="30" as="geometry"/>
                </mxCell>
                <mxCell id="SxYlm2iQKeeMsEHb3vlX-14" value="1..*" style="text;html=1;align=center;verticalAlign=middle;resizable=0;points=[];autosize=1;strokeColor=none;fillColor=none;fontColor=#333333;" parent="1" vertex="1">
                    <mxGeometry x="230" y="450" width="40" height="30" as="geometry"/>
                </mxCell>
                <mxCell id="SxYlm2iQKeeMsEHb3vlX-15" value="1..*" style="text;html=1;align=center;verticalAlign=middle;resizable=0;points=[];autosize=1;" parent="1" vertex="1">
                    <mxGeometry x="230" y="600" width="40" height="30" as="geometry"/>
                </mxCell>
                <mxCell id="SxYlm2iQKeeMsEHb3vlX-16" value="1" style="text;html=1;align=center;verticalAlign=middle;resizable=0;points=[];autosize=1;strokeColor=none;fillColor=none;fontColor=#333333;" parent="1" vertex="1">
                    <mxGeometry x="305" y="600" width="30" height="30" as="geometry"/>
                </mxCell>
                <mxCell id="SxYlm2iQKeeMsEHb3vlX-18" value="1" style="text;html=1;align=center;verticalAlign=middle;resizable=0;points=[];autosize=1;strokeColor=none;fillColor=none;fontColor=#333333;" parent="1" vertex="1">
                    <mxGeometry x="-180" y="480" width="30" height="30" as="geometry"/>
                </mxCell>
                <mxCell id="SxYlm2iQKeeMsEHb3vlX-19" value="1..*" style="text;html=1;align=center;verticalAlign=middle;resizable=0;points=[];autosize=1;" parent="1" vertex="1">
                    <mxGeometry x="50" y="600" width="40" height="30" as="geometry"/>
                </mxCell>
                <mxCell id="2" value="" style="endArrow=none;html=1;rounded=0;exitX=0.25;exitY=0;exitDx=0;exitDy=0;fillColor=#f5f5f5;strokeColor=#666666;entryX=0.223;entryY=1.021;entryDx=0;entryDy=0;entryPerimeter=0;" parent="1" source="Xxl3pkXNStO3PvVo3a0l-6" target="YeF2VasII4Bk6o8nPMnh-35" edge="1">
                    <mxGeometry width="50" height="50" relative="1" as="geometry">
                        <mxPoint x="270" y="630" as="sourcePoint"/>
                        <mxPoint x="311" y="430" as="targetPoint"/>
                    </mxGeometry>
                </mxCell>
                <mxCell id="SxYlm2iQKeeMsEHb3vlX-17" value="1" style="text;html=1;align=center;verticalAlign=middle;resizable=0;points=[];autosize=1;strokeColor=none;fillColor=none;fontColor=#333333;" parent="1" vertex="1">
                    <mxGeometry x="305" y="450" width="30" height="30" as="geometry"/>
                </mxCell>
                <mxCell id="3" value="" style="endArrow=none;html=1;exitX=0.75;exitY=1;exitDx=0;exitDy=0;entryX=0;entryY=0;entryDx=0;entryDy=0;strokeWidth=1;" parent="1" source="YeF2VasII4Bk6o8nPMnh-53" target="YeF2VasII4Bk6o8nPMnh-44" edge="1">
                    <mxGeometry width="50" height="50" relative="1" as="geometry">
                        <mxPoint x="-190" y="594" as="sourcePoint"/>
                        <mxPoint x="-30" y="594" as="targetPoint"/>
                    </mxGeometry>
                </mxCell>
                <mxCell id="7" value="1" style="text;html=1;align=center;verticalAlign=middle;resizable=0;points=[];autosize=1;strokeColor=none;fillColor=none;" parent="1" vertex="1">
                    <mxGeometry x="-290" y="512" width="30" height="30" as="geometry"/>
                </mxCell>
                <mxCell id="8" value="1..*" style="text;html=1;align=center;verticalAlign=middle;resizable=0;points=[];autosize=1;strokeColor=none;fillColor=none;" parent="1" vertex="1">
                    <mxGeometry x="-295" y="607" width="40" height="30" as="geometry"/>
                </mxCell>
                <mxCell id="9" value="1" style="text;html=1;align=center;verticalAlign=middle;resizable=0;points=[];autosize=1;strokeColor=none;fillColor=none;" parent="1" vertex="1">
                    <mxGeometry x="190" y="446" width="30" height="30" as="geometry"/>
                </mxCell>
            </root>
        </mxGraphModel>
    </diagram>
</mxfile>